# xmcd
#
# Track frame offsets:
#	150
#	18359
#	39581
#	58337
#	75247
#	95593
#	116350
#	137002
#	154970
#	174649
#	193540
#	210004
#
# Disc length: 3115 seconds
#
# Revision: 0
# Processed by: cddbd v1.5.2PL0 Copyright (c) Steve Scherf et al.
# Submitted via: EZCDAudioConverter 1.3.4.1
#
DISCID=940c290c
DTITLE=Various  - Smooth and Soulful Christmas, Vol 1
DYEAR=2005
DGENRE=Christmas
TTITLE0=The Pointer Sisters - Christmas in New York
TTITLE1=Patti Austin - Have Yourself a Merry Little Christmas
TTITLE2=Al Jarreau - Christmas Morning
TTITLE3=Natalie Cole - Colored With Love
TTITLE4=Fourplay - It Came Upon a Midnight Clear
TTITLE5=Donna Summer - Christmas Spirit
TTITLE6=Anita Baker - Christmas Fantasy
TTITLE7=Take 6 - Away in a Manger
TTITLE8=Al Jarreau - Petty Virginia
TTITLE9=Marilyn McCoo - Silent Night
TTITLE10=The Pointer Sisters - Carol of the Bells
TTITLE11=Fourplay - God Rest Ye Merry Gentlemen
EXTD=
EXTT0=
EXTT1=
EXTT2=
EXTT3=
EXTT4=
EXTT5=
EXTT6=
EXTT7=
EXTT8=
EXTT9=
EXTT10=
EXTT11=
PLAYORDER=
